<?xml version="1.0" encoding="UTF-8"?>
<svg id="Layer_1" xmlns="http://www.w3.org/2000/svg" version="1.1" viewBox="0 0 300 300">
  <!-- Generator: Adobe Illustrator 29.3.1, SVG Export Plug-In . SVG Version: 2.1.0 Build 151)  -->
  <defs>
    <style>
      .st0 {
        fill: #d6986e;
      }
    </style>
  </defs>
  <path class="st0" d="M266.32,102.49c-.41-15.85-9.36-31.75-24.35-39.61-7.71-4.07-15.69-7.99-23.76-11.7-31.87,10.31-69.24,23.9-106.91,40.77-7.39,3.27-12.29,10.44-12.64,18.51-.59,18.18-.77,36.94-.53,55.5.05,1.4-1.05,2.58-2.45,2.63-.84.03-1.65-.36-2.14-1.04-3.98-5.1-7.87-10.15-11.68-15.14-.58-.81-1.69-1.04-2.54-.52-2.96,1.75-5.86,3.48-8.71,5.2-1.6.96-3.56-.32-3.57-2.29-.1-18.48.37-37.01,1.35-54.97.42-7.57,5.17-14.71,12.2-18.18,36.13-17.83,74.67-32.4,107.56-43.19-7.65-2.99-15.27-5.74-22.7-8.34-10.02-3.44-20.9-3.44-30.92,0-24.79,8.55-51.87,19.72-76.53,32.78-14.99,7.86-23.92,23.77-24.32,39.61-.98,31.67-.98,63.34,0,95.01.38,15.85,9.33,31.75,24.32,39.61,24.66,13.06,51.74,24.23,76.55,32.78,10.02,3.44,20.9,3.44,30.92,0,24.79-8.54,51.87-19.72,76.55-32.78,14.98-7.86,23.92-23.77,24.31-39.61.98-31.67.98-63.34,0-95.01ZM194.26,223c0,3.58-2.57,7.59-5.74,8.94l-30.38,12.99c-3.17,1.36-5.74-.45-5.74-4.03v-34.36c0-3.58,2.57-7.59,5.74-8.94l30.38-12.99c3.17-1.35,5.74.45,5.74,4.03v34.36ZM194.26,163.04c0,3.58-2.57,7.59-5.74,8.94l-30.38,12.99c-3.17,1.35-5.74-.45-5.74-4.03v-34.36c0-3.58,2.57-7.59,5.74-8.94l30.38-12.99c3.17-1.36,5.74.45,5.74,4.03v34.36ZM202.63,184.88c0-3.47,2.51-7.39,5.58-8.7l13.95-5.97c3.07-1.31,5.58.45,5.58,3.93v12.62c0,3.47-2.51,7.39-5.58,8.7-3.07,1.31-5.58-.45-5.58-3.93v-6.31l-8.37,3.58c-3.07,1.31-5.58-.45-5.58-3.93ZM247.27,194.19c0,6.97-4.99,14.76-11.16,17.4l-25.11,10.74c-3.07,1.31-5.58-.45-5.58-3.93s2.51-7.39,5.58-8.7l25.11-10.74v-28.4c0-3.47,2.51-7.39,5.58-8.7,3.07-1.31,5.58.45,5.58,3.93v28.4ZM247.27,140.36c0,3.58-2.57,7.59-5.74,8.94l-30.38,12.99c-3.17,1.36-5.74-.45-5.74-4.03v-34.36c0-3.58,2.57-7.59,5.74-8.94l30.38-12.99c3.17-1.36,5.74.45,5.74,4.03v34.36Z"/>
  <path class="st0" d="M182.56,136.48l-18.46,7.89c-1.92.82-3.48,3.26-3.48,5.43v20.88c0,2.18,1.56,3.27,3.48,2.45l18.46-7.89c1.92-.82,3.48-3.26,3.48-5.43v-20.88c0-2.18-1.56-3.27-3.48-2.45ZM178.89,156.99c0,.95-.68,2.01-1.52,2.37l-8.07,3.45c-.84.36-1.52-.12-1.52-1.07v-9.13c0-.95.68-2.01,1.52-2.37l8.07-3.45c.84-.36,1.52.12,1.52,1.07v9.13Z"/>
</svg>