<?xml version="1.0" encoding="UTF-8"?>
<svg id="Layer_1" xmlns="http://www.w3.org/2000/svg" version="1.1" viewBox="0 0 1186.59 295.73">
  <!-- Generator: Adobe Illustrator 29.3.1, SVG Export Plug-In . SVG Version: 2.1.0 Build 151)  -->
  <defs>
    <style>
      .st0 {
        fill: #2d92d2;
      }

      .st1 {
        fill: #d6986e;
      }
    </style>
  </defs>
  <g>
    <path class="st1" d="M261.94,100.36c-.41-15.85-9.36-31.75-24.35-39.61-7.71-4.07-15.69-7.99-23.76-11.7-31.87,10.31-69.24,23.9-106.91,40.77-7.39,3.27-12.29,10.44-12.64,18.51-.59,18.18-.77,36.94-.53,55.5.05,1.4-1.05,2.58-2.45,2.63-.84.03-1.65-.36-2.14-1.04-3.98-5.1-7.87-10.15-11.68-15.14-.58-.81-1.69-1.04-2.54-.52-2.96,1.75-5.86,3.48-8.71,5.2-1.6.96-3.56-.32-3.57-2.29-.1-18.48.37-37.01,1.35-54.97.42-7.57,5.17-14.71,12.2-18.18,36.13-17.83,74.67-32.4,107.56-43.19-7.65-2.99-15.27-5.74-22.7-8.34-10.02-3.44-20.9-3.44-30.92,0-24.79,8.55-51.87,19.72-76.53,32.78-14.99,7.86-23.92,23.77-24.32,39.61-.98,31.67-.98,63.34,0,95.01.38,15.85,9.33,31.75,24.32,39.61,24.66,13.06,51.74,24.23,76.55,32.78,10.02,3.44,20.9,3.44,30.92,0,24.79-8.54,51.87-19.72,76.55-32.78,14.98-7.86,23.92-23.77,24.31-39.61.98-31.67.98-63.34,0-95.01ZM189.88,220.87c0,3.58-2.57,7.59-5.74,8.94l-30.38,12.99c-3.17,1.36-5.74-.45-5.74-4.03v-34.36c0-3.58,2.57-7.59,5.74-8.94l30.38-12.99c3.17-1.35,5.74.45,5.74,4.03v34.36ZM189.88,160.9c0,3.58-2.57,7.59-5.74,8.94l-30.38,12.99c-3.17,1.35-5.74-.45-5.74-4.03v-34.36c0-3.58,2.57-7.59,5.74-8.94l30.38-12.99c3.17-1.36,5.74.45,5.74,4.03v34.36ZM198.25,182.75c0-3.47,2.51-7.39,5.58-8.7l13.95-5.97c3.07-1.31,5.58.45,5.58,3.93v12.62c0,3.47-2.51,7.39-5.58,8.7-3.07,1.31-5.58-.45-5.58-3.93v-6.31l-8.37,3.58c-3.07,1.31-5.58-.45-5.58-3.93ZM242.89,192.06c0,6.97-4.99,14.76-11.16,17.4l-25.11,10.74c-3.07,1.31-5.58-.45-5.58-3.93s2.51-7.39,5.58-8.7l25.11-10.74v-28.4c0-3.47,2.51-7.39,5.58-8.7,3.07-1.31,5.58.45,5.58,3.93v28.4ZM242.89,138.23c0,3.58-2.57,7.59-5.74,8.94l-30.38,12.99c-3.17,1.36-5.74-.45-5.74-4.03v-34.36c0-3.58,2.57-7.59,5.74-8.94l30.38-12.99c3.17-1.36,5.74.45,5.74,4.03v34.36Z"/>
    <path class="st1" d="M178.19,134.34l-18.46,7.89c-1.92.82-3.48,3.26-3.48,5.43v20.88c0,2.18,1.56,3.27,3.48,2.45l18.46-7.89c1.92-.82,3.48-3.26,3.48-5.43v-20.88c0-2.18-1.56-3.27-3.48-2.45ZM174.51,154.86c0,.95-.68,2.01-1.52,2.37l-8.07,3.45c-.84.36-1.52-.12-1.52-1.07v-9.13c0-.95.68-2.01,1.52-2.37l8.07-3.45c.84-.36,1.52.12,1.52,1.07v9.13Z"/>
  </g>
  <g>
    <path class="st0" d="M915.92,87.51c-2.54-6.26-6.85-9.2-13.5-9.2h-16.63c-6.65,0-11.15,2.93-13.5,9.2l-44.21,114.25c-3.13,8.02.59,13.5,9.19,13.5h18c6.65,0,10.96-3.13,13.3-9.39l4.89-13.5h40.69l5.28,13.7c2.35,6.26,6.85,9.19,13.5,9.19h18.98c8.8,0,12.33-5.48,9.19-13.5l-45.19-114.25ZM879.92,160.29l14.28-38.54,13.11,38.54h-27.39Z"/>
    <path class="st0" d="M400.93,180.04h-33.88v-89.99c0-7.63-4.11-11.74-11.74-11.74h-17.61c-7.63,0-11.74,4.11-11.74,11.74v113.47c0,7.63,4.11,11.74,11.74,11.74h63.23c7.63,0,11.74-4.11,11.74-11.74v-11.74c0-7.63-4.11-11.74-11.74-11.74Z"/>
    <path class="st0" d="M491.71,77.24c-46.17,0-73.95,32.48-73.95,70.63s27.78,70.63,73.95,70.63,73.95-32.48,73.95-70.63-27.78-70.63-73.95-70.63ZM491.71,183.27c-20.93,0-32.87-16.24-32.87-35.41s11.93-35.41,32.87-35.41,32.87,16.24,32.87,35.41-11.93,35.41-32.87,35.41Z"/>
    <path class="st0" d="M687.98,178.58c-4.89-5.67-9.98-5.28-16.43-.98-7.04,4.3-14.28,5.67-20.74,5.67-21.32,0-35.22-15.65-35.22-35.41s13.89-35.41,35.22-35.41c6.46,0,13.89,1.37,20.74,5.67,6.46,4.3,11.54,4.7,16.43-.98l7.83-9c5.09-5.67,4.7-11.93-1.57-16.43-11.93-8.8-25.43-14.48-43.43-14.48-46.17,0-76.3,32.48-76.3,70.63s30.13,70.63,76.3,70.63c18.39,0,32.08-5.87,44.41-15.06,5.67-4.3,5.67-9.98.59-15.85l-7.83-9Z"/>
    <path class="st0" d="M1039.92,78.31h-106.68c-11.7,0-5.97,10.6-2.5,19.24,3.86,9.64,5.91,15.97,16.45,15.97h30v89.99c0,7.63,4.11,11.74,11.74,11.74h16.83c7.63,0,11.74-4.11,11.74-11.74v-89.99h22.43c7.63,0,11.74-4.11,11.74-11.74v-11.74c0-7.63-4.11-11.74-11.74-11.74Z"/>
    <path class="st0" d="M1146.29,113.53c7.63,0,11.74-4.11,11.74-11.74v-11.74c0-7.63-4.11-11.74-11.74-11.74h-74.15c-7.63,0-11.74,4.11-11.74,11.74v113.47c0,7.63,4.11,11.74,11.74,11.74h74.15c7.63,0,11.74-4.11,11.74-11.74v-11.74c0-7.63-4.11-11.74-11.74-11.74h-44.8v-17.41h37.37c7.63,0,11.74-4.11,11.74-11.74v-7.83c0-7.63-4.11-11.74-11.74-11.74h-37.37v-17.8h44.8Z"/>
    <path class="st0" d="M817.31,185.07h-7.56v.03c-7.15-.8-12.61-6.83-14.24-18.71,17.84-5.62,28.12-20.17,28.12-40.15,0-25.99-16.87-47.32-48.49-47.32h-54.31c-7.56,0-11.64,4.07-11.64,11.64v112.49c0,7.56,4.07,11.64,11.64,11.64h17.46c7.56,0,11.64-4.07,11.64-11.64v-34.14h9.7c1.53,13.74,7.96,46.8,41.79,47.86v.05s3.32,0,3.32,0c9.5,0,11.35-5.71,14.83-14.4,3.12-7.79,8.29-17.35-2.26-17.35ZM770.89,140.79h-20.95v-26.96h20.95c6.98,0,12.03,6.59,12.03,13.77,0,6.59-5.04,13.19-12.03,13.19Z"/>
    <path class="st0" d="M423.1,215.25c10.06,0,7.4-7.01,1.06-17.61-9.28-15.52-11.49-17.61-19.44-17.61h-9.42v35.22h27.81Z"/>
  </g>
</svg>