<?xml version="1.0" encoding="UTF-8"?>
<svg id="Layer_1" xmlns="http://www.w3.org/2000/svg" version="1.1" viewBox="0 0 876.77 184.81">
  <!-- Generator: Adobe Illustrator 29.3.1, SVG Export Plug-In . SVG Version: 2.1.0 Build 151)  -->
  <defs>
    <style>
      .st0 {
        fill: #fff;
      }
    </style>
  </defs>
  <path class="st0" d="M612.31,32.05c-2.54-6.26-6.85-9.2-13.5-9.2h-16.63c-6.65,0-11.15,2.93-13.5,9.2l-44.21,114.25c-3.13,8.02.59,13.5,9.19,13.5h18c6.65,0,10.96-3.13,13.3-9.39l4.89-13.5h40.69l5.28,13.7c2.35,6.26,6.85,9.19,13.5,9.19h18.98c8.8,0,12.33-5.48,9.19-13.5l-45.19-114.25ZM576.31,104.83l14.28-38.54,13.11,38.54h-27.39Z"/>
  <path class="st0" d="M97.32,124.57h-33.88V34.58c0-7.63-4.11-11.74-11.74-11.74h-17.61c-7.63,0-11.74,4.11-11.74,11.74v113.47c0,7.63,4.11,11.74,11.74,11.74h63.23c7.63,0,11.74-4.11,11.74-11.74v-11.74c0-7.63-4.11-11.74-11.74-11.74Z"/>
  <path class="st0" d="M188.1,21.78c-46.17,0-73.95,32.48-73.95,70.63s27.78,70.63,73.95,70.63,73.95-32.48,73.95-70.63-27.78-70.63-73.95-70.63ZM188.1,127.81c-20.93,0-32.87-16.24-32.87-35.41s11.93-35.41,32.87-35.41,32.87,16.24,32.87,35.41-11.93,35.41-32.87,35.41Z"/>
  <path class="st0" d="M384.36,123.12c-4.89-5.67-9.98-5.28-16.43-.98-7.04,4.3-14.28,5.67-20.74,5.67-21.32,0-35.22-15.65-35.22-35.41s13.89-35.41,35.22-35.41c6.46,0,13.89,1.37,20.74,5.67,6.46,4.3,11.54,4.7,16.43-.98l7.83-9c5.09-5.67,4.7-11.93-1.57-16.43-11.93-8.8-25.43-14.48-43.43-14.48-46.17,0-76.3,32.48-76.3,70.63s30.13,70.63,76.3,70.63c18.39,0,32.08-5.87,44.41-15.06,5.67-4.3,5.67-9.98.59-15.85l-7.83-9Z"/>
  <path class="st0" d="M736.31,22.85h-106.68c-11.7,0-5.97,10.6-2.5,19.24,3.86,9.64,5.91,15.97,16.45,15.97h30v89.99c0,7.63,4.11,11.74,11.74,11.74h16.83c7.63,0,11.74-4.11,11.74-11.74V58.07h22.43c7.63,0,11.74-4.11,11.74-11.74v-11.74c0-7.63-4.11-11.74-11.74-11.74Z"/>
  <path class="st0" d="M842.68,58.07c7.63,0,11.74-4.11,11.74-11.74v-11.74c0-7.63-4.11-11.74-11.74-11.74h-74.15c-7.63,0-11.74,4.11-11.74,11.74v113.47c0,7.63,4.11,11.74,11.74,11.74h74.15c7.63,0,11.74-4.11,11.74-11.74v-11.74c0-7.63-4.11-11.74-11.74-11.74h-44.8v-17.41h37.37c7.63,0,11.74-4.11,11.74-11.74v-7.83c0-7.63-4.11-11.74-11.74-11.74h-37.37v-17.8h44.8Z"/>
  <path class="st0" d="M513.7,129.61h-7.56v.03c-7.15-.8-12.61-6.83-14.24-18.71,17.84-5.62,28.12-20.17,28.12-40.15,0-25.99-16.87-47.32-48.49-47.32h-54.31c-7.56,0-11.64,4.07-11.64,11.64v112.49c0,7.56,4.07,11.64,11.64,11.64h17.46c7.56,0,11.64-4.07,11.64-11.64v-34.14h9.7c1.53,13.74,7.96,46.8,41.79,47.86v.05s3.32,0,3.32,0c9.5,0,11.35-5.71,14.83-14.4,3.12-7.79,8.29-17.35-2.26-17.35ZM467.27,85.32h-20.95v-26.96h20.95c6.98,0,12.03,6.59,12.03,13.77,0,6.59-5.04,13.19-12.03,13.19Z"/>
  <path class="st0" d="M119.48,159.79c10.06,0,7.4-7.01,1.06-17.61-9.28-15.52-11.49-17.61-19.44-17.61h-9.42v35.22h27.81Z"/>
</svg>