<?xml version="1.0" encoding="UTF-8"?>
<svg id="Layer_1" xmlns="http://www.w3.org/2000/svg" version="1.1" viewBox="0 0 300 300">
  <!-- Generator: Adobe Illustrator 29.3.1, SVG Export Plug-In . SVG Version: 2.1.0 Build 151)  -->
  <defs>
    <style>
      .st0 {
        fill: #fff;
      }

      .st1 {
        fill: #d6986e;
      }
    </style>
  </defs>
  <path class="st0" d="M266.58,109.21c-.55-20.4-12.42-39.62-30.25-48.98-6.65-3.51-62.4-27.12-67.29-28.84-.03-.01-.07-.02-.1-.04-6.11-2.1-12.49-3.16-18.95-3.16s-12.84,1.06-18.95,3.16c-16.84,5.81-42.19,15.53-67.42,28.88-17.82,9.37-29.67,28.58-30.2,48.98-.84,27.05-.84,54.48,0,81.54.52,20.4,12.37,39.62,30.21,49,25.24,13.37,50.59,23.08,67.4,28.87,6.13,2.1,12.5,3.17,18.96,3.17s12.84-1.06,18.95-3.16c16.82-5.8,42.14-15.5,67.43-28.88,17.82-9.37,29.67-28.59,30.2-48.99.84-27.06.84-54.5,0-81.56Z"/>
  <g>
    <path class="st1" d="M248.59,109.74c-.35-13.43-7.94-26.91-20.63-33.57-6.53-3.45-13.3-6.77-20.14-9.92-27.01,8.74-58.68,20.25-90.61,34.55-6.26,2.77-10.41,8.84-10.72,15.68-.5,15.41-.65,31.31-.45,47.03.04,1.19-.89,2.19-2.08,2.23-.71.03-1.39-.3-1.82-.88-3.37-4.32-6.67-8.6-9.9-12.83-.49-.69-1.43-.88-2.15-.44-2.51,1.48-4.97,2.95-7.38,4.4-1.35.81-3.02-.27-3.03-1.94-.08-15.66.31-31.37,1.15-46.59.35-6.42,4.38-12.46,10.34-15.41,30.62-15.11,63.29-27.46,91.16-36.61-6.49-2.54-12.94-4.87-19.24-7.07-8.49-2.92-17.71-2.92-26.2,0-21.01,7.25-43.96,16.71-64.86,27.78-12.7,6.66-20.27,20.14-20.61,33.57-.83,26.84-.83,53.68,0,80.53.32,13.43,7.91,26.91,20.61,33.57,20.9,11.07,43.85,20.53,64.88,27.78,8.49,2.92,17.71,2.92,26.2,0,21.01-7.24,43.96-16.71,64.88-27.78,12.7-6.66,20.27-20.14,20.61-33.57.83-26.84.83-53.68,0-80.53ZM187.51,211.87c0,3.04-2.18,6.43-4.86,7.58l-25.75,11.01c-2.68,1.15-4.86-.38-4.86-3.42v-29.12c0-3.04,2.18-6.43,4.86-7.58l25.75-11.01c2.68-1.15,4.86.38,4.86,3.42v29.12ZM187.51,161.05c0,3.04-2.18,6.43-4.86,7.58l-25.75,11.01c-2.68,1.15-4.86-.38-4.86-3.42v-29.12c0-3.04,2.18-6.43,4.86-7.58l25.75-11.01c2.68-1.15,4.86.38,4.86,3.42v29.12ZM194.61,179.56c0-2.94,2.13-6.26,4.73-7.37l11.82-5.06c2.6-1.11,4.73.38,4.73,3.33v10.7c0,2.94-2.13,6.26-4.73,7.37-2.6,1.11-4.73-.38-4.73-3.33v-5.35l-7.09,3.03c-2.6,1.11-4.73-.38-4.73-3.33ZM232.44,187.45c0,5.91-4.23,12.51-9.46,14.74l-21.28,9.1c-2.6,1.11-4.73-.38-4.73-3.33s2.13-6.26,4.73-7.37l21.28-9.1v-24.07c0-2.94,2.13-6.26,4.73-7.37,2.6-1.11,4.73.38,4.73,3.33v24.07ZM232.44,141.83c0,3.04-2.18,6.43-4.86,7.58l-25.75,11.01c-2.68,1.15-4.86-.38-4.86-3.42v-29.12c0-3.04,2.18-6.43,4.86-7.58l25.75-11.01c2.68-1.15,4.86.38,4.86,3.42v29.12Z"/>
    <path class="st1" d="M177.6,138.54l-15.64,6.69c-1.63.7-2.95,2.76-2.95,4.6v17.69c0,1.84,1.32,2.78,2.95,2.08l15.64-6.69c1.63-.7,2.95-2.76,2.95-4.6v-17.69c0-1.84-1.32-2.78-2.95-2.08ZM174.49,155.93c0,.81-.58,1.71-1.29,2.01l-6.84,2.92c-.71.31-1.29-.1-1.29-.91v-7.73c0-.81.58-1.71,1.29-2.01l6.84-2.92c.71-.3,1.29.1,1.29.91v7.73Z"/>
  </g>
</svg>