<?xml version="1.0" encoding="UTF-8"?>
<svg id="Layer_1" xmlns="http://www.w3.org/2000/svg" version="1.1" viewBox="0 0 1186.59 295.73">
  <!-- Generator: Adobe Illustrator 29.3.1, SVG Export Plug-In . SVG Version: 2.1.0 Build 151)  -->
  <defs>
    <style>
      .st0 {
        fill: #fff;
      }

      .st1 {
        fill: #d6986e;
      }
    </style>
  </defs>
  <path class="st0" d="M262.27,107.08c-.55-20.4-12.42-39.62-30.25-48.98-6.65-3.51-62.4-27.12-67.29-28.84-.03-.01-.07-.02-.1-.04-6.11-2.1-12.49-3.16-18.95-3.16s-12.84,1.06-18.95,3.16c-16.84,5.81-42.19,15.53-67.42,28.88-17.82,9.37-29.67,28.58-30.2,48.98-.84,27.05-.84,54.48,0,81.54.52,20.4,12.37,39.62,30.21,49,25.24,13.37,50.59,23.08,67.4,28.87,6.13,2.1,12.5,3.17,18.96,3.17s12.84-1.06,18.95-3.16c16.82-5.8,42.14-15.5,67.43-28.88,17.82-9.37,29.67-28.59,30.2-48.99.84-27.06.84-54.5,0-81.56Z"/>
  <g>
    <path class="st1" d="M244.28,107.6c-.35-13.43-7.94-26.91-20.63-33.57-6.53-3.45-13.3-6.77-20.14-9.92-27.01,8.74-58.68,20.25-90.61,34.55-6.26,2.77-10.41,8.84-10.72,15.68-.5,15.41-.65,31.31-.45,47.03.04,1.19-.89,2.19-2.08,2.23-.71.03-1.39-.3-1.82-.88-3.37-4.32-6.67-8.6-9.9-12.83-.49-.69-1.43-.88-2.15-.44-2.51,1.48-4.97,2.95-7.38,4.4-1.35.81-3.02-.27-3.03-1.94-.08-15.66.31-31.37,1.15-46.59.35-6.42,4.38-12.46,10.34-15.41,30.62-15.11,63.29-27.46,91.16-36.61-6.49-2.54-12.94-4.87-19.24-7.07-8.49-2.92-17.71-2.92-26.2,0-21.01,7.25-43.96,16.71-64.86,27.78-12.7,6.66-20.27,20.14-20.61,33.57-.83,26.84-.83,53.68,0,80.53.32,13.43,7.91,26.91,20.61,33.57,20.9,11.07,43.85,20.53,64.88,27.78,8.49,2.92,17.71,2.92,26.2,0,21.01-7.24,43.96-16.71,64.88-27.78,12.7-6.66,20.27-20.14,20.61-33.57.83-26.84.83-53.68,0-80.53ZM183.21,209.74c0,3.04-2.18,6.43-4.86,7.58l-25.75,11.01c-2.68,1.15-4.86-.38-4.86-3.42v-29.12c0-3.04,2.18-6.43,4.86-7.58l25.75-11.01c2.68-1.15,4.86.38,4.86,3.42v29.12ZM183.21,158.91c0,3.04-2.18,6.43-4.86,7.58l-25.75,11.01c-2.68,1.15-4.86-.38-4.86-3.42v-29.12c0-3.04,2.18-6.43,4.86-7.58l25.75-11.01c2.68-1.15,4.86.38,4.86,3.42v29.12ZM190.3,177.43c0-2.94,2.13-6.26,4.73-7.37l11.82-5.06c2.6-1.11,4.73.38,4.73,3.33v10.7c0,2.94-2.13,6.26-4.73,7.37-2.6,1.11-4.73-.38-4.73-3.33v-5.35l-7.09,3.03c-2.6,1.11-4.73-.38-4.73-3.33ZM228.14,185.32c0,5.91-4.23,12.51-9.46,14.74l-21.28,9.1c-2.6,1.11-4.73-.38-4.73-3.33s2.13-6.26,4.73-7.37l21.28-9.1v-24.07c0-2.94,2.13-6.26,4.73-7.37,2.6-1.11,4.73.38,4.73,3.33v24.07ZM228.14,139.7c0,3.04-2.18,6.43-4.86,7.58l-25.75,11.01c-2.68,1.15-4.86-.38-4.86-3.42v-29.12c0-3.04,2.18-6.43,4.86-7.58l25.75-11.01c2.68-1.15,4.86.38,4.86,3.42v29.12Z"/>
    <path class="st1" d="M173.29,136.4l-15.64,6.69c-1.63.7-2.95,2.76-2.95,4.6v17.69c0,1.84,1.32,2.78,2.95,2.08l15.64-6.69c1.63-.7,2.95-2.76,2.95-4.6v-17.69c0-1.84-1.32-2.78-2.95-2.08ZM170.18,153.79c0,.81-.58,1.71-1.29,2.01l-6.84,2.92c-.71.31-1.29-.1-1.29-.91v-7.73c0-.81.58-1.71,1.29-2.01l6.84-2.92c.71-.3,1.29.1,1.29.91v7.73Z"/>
  </g>
  <g>
    <path class="st0" d="M916,87.51c-2.54-6.26-6.85-9.2-13.5-9.2h-16.63c-6.65,0-11.15,2.93-13.5,9.2l-44.21,114.25c-3.13,8.02.59,13.5,9.19,13.5h18c6.65,0,10.96-3.13,13.3-9.39l4.89-13.5h40.69l5.28,13.7c2.35,6.26,6.85,9.19,13.5,9.19h18.98c8.8,0,12.33-5.48,9.19-13.5l-45.19-114.25ZM880,160.29l14.28-38.54,13.11,38.54h-27.39Z"/>
    <path class="st0" d="M401,180.04h-33.88v-89.99c0-7.63-4.11-11.74-11.74-11.74h-17.61c-7.63,0-11.74,4.11-11.74,11.74v113.47c0,7.63,4.11,11.74,11.74,11.74h63.23c7.63,0,11.74-4.11,11.74-11.74v-11.74c0-7.63-4.11-11.74-11.74-11.74Z"/>
    <path class="st0" d="M491.79,77.24c-46.17,0-73.95,32.48-73.95,70.63s27.78,70.63,73.95,70.63,73.95-32.48,73.95-70.63-27.78-70.63-73.95-70.63ZM491.79,183.27c-20.93,0-32.87-16.24-32.87-35.41s11.93-35.41,32.87-35.41,32.87,16.24,32.87,35.41-11.93,35.41-32.87,35.41Z"/>
    <path class="st0" d="M688.05,178.58c-4.89-5.67-9.98-5.28-16.43-.98-7.04,4.3-14.28,5.67-20.74,5.67-21.32,0-35.22-15.65-35.22-35.41s13.89-35.41,35.22-35.41c6.46,0,13.89,1.37,20.74,5.67,6.46,4.3,11.54,4.7,16.43-.98l7.83-9c5.09-5.67,4.7-11.93-1.57-16.43-11.93-8.8-25.43-14.48-43.43-14.48-46.17,0-76.3,32.48-76.3,70.63s30.13,70.63,76.3,70.63c18.39,0,32.08-5.87,44.41-15.06,5.67-4.3,5.67-9.98.59-15.85l-7.83-9Z"/>
    <path class="st0" d="M1039.99,78.31h-106.68c-11.7,0-5.97,10.6-2.5,19.24,3.86,9.64,5.91,15.97,16.45,15.97h30v89.99c0,7.63,4.11,11.74,11.74,11.74h16.83c7.63,0,11.74-4.11,11.74-11.74v-89.99h22.43c7.63,0,11.74-4.11,11.74-11.74v-11.74c0-7.63-4.11-11.74-11.74-11.74Z"/>
    <path class="st0" d="M1146.37,113.53c7.63,0,11.74-4.11,11.74-11.74v-11.74c0-7.63-4.11-11.74-11.74-11.74h-74.15c-7.63,0-11.74,4.11-11.74,11.74v113.47c0,7.63,4.11,11.74,11.74,11.74h74.15c7.63,0,11.74-4.11,11.74-11.74v-11.74c0-7.63-4.11-11.74-11.74-11.74h-44.8v-17.41h37.37c7.63,0,11.74-4.11,11.74-11.74v-7.83c0-7.63-4.11-11.74-11.74-11.74h-37.37v-17.8h44.8Z"/>
    <path class="st0" d="M817.39,185.07h-7.56v.03c-7.15-.8-12.61-6.83-14.24-18.71,17.84-5.62,28.12-20.17,28.12-40.15,0-25.99-16.87-47.32-48.49-47.32h-54.31c-7.56,0-11.64,4.07-11.64,11.64v112.49c0,7.56,4.07,11.64,11.64,11.64h17.46c7.56,0,11.64-4.07,11.64-11.64v-34.14h9.7c1.53,13.74,7.96,46.8,41.79,47.86v.05s3.32,0,3.32,0c9.5,0,11.35-5.71,14.83-14.4,3.12-7.79,8.29-17.35-2.26-17.35ZM770.96,140.79h-20.95v-26.96h20.95c6.98,0,12.03,6.59,12.03,13.77,0,6.59-5.04,13.19-12.03,13.19Z"/>
    <path class="st0" d="M423.17,215.25c10.06,0,7.4-7.01,1.06-17.61-9.28-15.52-11.49-17.61-19.44-17.61h-9.42v35.22h27.81Z"/>
  </g>
</svg>